<svg width="400" height="890" xmlns="http://www.w3.org/2000/svg">
	<defs>
		<filter id="shadow" x="-50%" y="-50%" width="200%" height="200%">
			<feGaussianBlur in="SourceAlpha" stdDeviation="3"/>
			<feOffset dx="0" dy="2" result="offsetblur"/>
			<feComponentTransfer>
				<feFuncA type="linear" slope="0.3"/>
			</feComponentTransfer>
			<feMerge>
				<feMergeNode/>
				<feMergeNode in="SourceGraphic"/>
			</feMerge>
		</filter>
	</defs>

	<rect x="50" y="50" width="300" height="80"
		rx="8" fill="#6b7280" opacity="0.15"
		stroke="#6b7280" stroke-width="2" filter="url(#shadow)"/>
	<text x="200.0" y="80"
		font-family="Arial, sans-serif" font-size="18" font-weight="bold"
		fill="#1f2937" text-anchor="middle">Raw Data</text>
	<text x="200.0" y="105"
		font-family="Arial, sans-serif" font-size="14"
		fill="#6b7280" text-anchor="middle">529,908 trips</text>

	<line x1="200.0" y1="130" x2="200.0" y2="190"
		stroke="#4b5563" stroke-width="3"/>
	<polygon points="200.0,190 194.0,180 206.0,180"
		fill="#4b5563"/>

	<rect x="50" y="190" width="300" height="80"
		rx="8" fill="#0070f3" opacity="0.15"
		stroke="#0070f3" stroke-width="2" filter="url(#shadow)"/>
	<text x="200.0" y="220"
		font-family="Arial, sans-serif" font-size="18" font-weight="bold"
		fill="#1f2937" text-anchor="middle">Data Preparation</text>
	<text x="200.0" y="245"
		font-family="Arial, sans-serif" font-size="14"
		fill="#0070f3" text-anchor="middle">91,028 station-hours</text>

	<line x1="200.0" y1="270" x2="200.0" y2="330"
		stroke="#4b5563" stroke-width="3"/>
	<polygon points="200.0,330 194.0,320 206.0,320"
		fill="#4b5563"/>

	<rect x="50" y="330" width="300" height="80"
		rx="8" fill="#10b981" opacity="0.15"
		stroke="#10b981" stroke-width="2" filter="url(#shadow)"/>
	<text x="200.0" y="360"
		font-family="Arial, sans-serif" font-size="18" font-weight="bold"
		fill="#1f2937" text-anchor="middle">Feature Engineering</text>
	<text x="200.0" y="385"
		font-family="Arial, sans-serif" font-size="14"
		fill="#10b981" text-anchor="middle">27 features</text>

	<line x1="200.0" y1="410" x2="200.0" y2="470"
		stroke="#4b5563" stroke-width="3"/>
	<polygon points="200.0,470 194.0,460 206.0,460"
		fill="#4b5563"/>

	<rect x="50" y="470" width="300" height="80"
		rx="8" fill="#8b5cf6" opacity="0.15"
		stroke="#8b5cf6" stroke-width="2" filter="url(#shadow)"/>
	<text x="200.0" y="500"
		font-family="Arial, sans-serif" font-size="18" font-weight="bold"
		fill="#1f2937" text-anchor="middle">Model Training</text>
	<text x="200.0" y="525"
		font-family="Arial, sans-serif" font-size="14"
		fill="#8b5cf6" text-anchor="middle">4 models compared</text>

	<line x1="200.0" y1="550" x2="200.0" y2="610"
		stroke="#4b5563" stroke-width="3"/>
	<polygon points="200.0,610 194.0,600 206.0,600"
		fill="#4b5563"/>

	<rect x="50" y="610" width="300" height="80"
		rx="8" fill="#f59e0b" opacity="0.15"
		stroke="#f59e0b" stroke-width="2" filter="url(#shadow)"/>
	<text x="200.0" y="640"
		font-family="Arial, sans-serif" font-size="18" font-weight="bold"
		fill="#1f2937" text-anchor="middle">Evaluation</text>
	<text x="200.0" y="665"
		font-family="Arial, sans-serif" font-size="14"
		fill="#f59e0b" text-anchor="middle">R² = 0.722</text>

	<line x1="200.0" y1="690" x2="200.0" y2="750"
		stroke="#4b5563" stroke-width="3"/>
	<polygon points="200.0,750 194.0,740 206.0,740"
		fill="#4b5563"/>

	<rect x="50" y="750" width="300" height="80"
		rx="8" fill="#ef4444" opacity="0.15"
		stroke="#ef4444" stroke-width="2" filter="url(#shadow)"/>
	<text x="200.0" y="780"
		font-family="Arial, sans-serif" font-size="18" font-weight="bold"
		fill="#1f2937" text-anchor="middle">Predictions</text>
	<text x="200.0" y="805"
		font-family="Arial, sans-serif" font-size="14"
		fill="#ef4444" text-anchor="middle">Hourly forecasts</text>
</svg>